<?xml version="1.0" standalone="no"?>
<!DOCTYPE svg PUBLIC "-//W3C//DTD SVG 20010904//EN"
 "http://www.w3.org/TR/2001/REC-SVG-20010904/DTD/svg10.dtd">
<svg version="1.0" xmlns="http://www.w3.org/2000/svg"
 width="1920.000000pt" height="1080.000000pt" viewBox="0 0 1920.000000 1080.000000"
 preserveAspectRatio="xMidYMid meet">

<g transform="translate(0.000000,1080.000000) scale(0.100000,-0.100000)"
fill="#000000" stroke="none">
<path d="M17730 10773 c0 -34 46 -325 66 -413 8 -36 14 -77 14 -92 0 -15 9
-74 20 -131 11 -57 27 -151 35 -208 8 -57 19 -124 25 -149 26 -126 -7 160 -49
425 -11 66 -29 185 -41 265 -44 304 -49 330 -61 330 -5 0 -9 -12 -9 -27z"/>
<path d="M17900 9695 c0 -5 5 -17 10 -25 5 -8 10 -10 10 -5 0 6 -5 17 -10 25
-5 8 -10 11 -10 5z"/>
<path d="M17942 9450 c0 -14 2 -19 5 -12 2 6 2 18 0 25 -3 6 -5 1 -5 -13z"/>
<path d="M8580 9149 c-37 -7 -55 -19 -103 -71 -32 -34 -63 -71 -68 -81 -13
-24 -50 -38 -66 -25 -9 7 -13 6 -13 -3 0 -8 -12 -19 -26 -26 -29 -13 -67 0
-107 38 -23 21 -99 49 -135 49 -44 0 -105 -23 -110 -42 -2 -10 -13 -18 -24
-18 -15 0 -17 -4 -9 -18 11 -20 3 -203 -10 -224 -7 -10 -11 -10 -21 0 -17 17
-103 15 -118 -3 -7 -8 -10 -15 -6 -15 3 0 -3 -14 -14 -32 -18 -30 -95 -98
-110 -98 -4 0 -17 -22 -29 -50 -12 -27 -26 -50 -31 -50 -6 0 -10 -7 -10 -16 0
-14 -47 -85 -84 -126 -9 -10 -16 -24 -16 -32 0 -8 -7 -16 -15 -20 -8 -3 -15
-1 -15 5 0 6 -5 7 -10 4 -6 -4 -8 -10 -6 -14 8 -12 -32 -51 -52 -51 -35 0 -83
-40 -103 -86 -20 -45 -28 -161 -13 -185 3 -6 0 -15 -7 -20 -12 -8 -12 -11 1
-19 15 -9 13 -11 -12 -14 -7 0 -15 -16 -19 -35 -4 -18 -12 -37 -19 -41 -6 -4
-14 -27 -17 -51 -3 -24 -10 -49 -15 -56 -6 -7 0 -26 18 -55 15 -23 27 -49 27
-56 0 -7 7 -10 19 -6 13 4 16 1 12 -10 -4 -11 0 -16 14 -16 26 0 36 -29 22
-65 -7 -20 -8 -31 0 -39 17 -17 12 -36 -7 -29 -14 5 -13 2 4 -16 18 -20 21
-33 18 -90 -2 -39 -11 -85 -23 -111 -25 -55 -28 -87 -19 -170 15 -129 30 -196
57 -260 15 -36 42 -103 60 -150 19 -47 38 -91 43 -98 5 -7 7 -15 4 -19 -4 -3
-2 -12 4 -20 9 -10 8 -17 -1 -28 -10 -13 -9 -15 10 -15 16 0 20 -4 16 -16 -4
-11 3 -19 24 -27 36 -13 36 -16 10 -50 -17 -21 -19 -33 -12 -59 7 -28 14 -34
44 -39 20 -3 49 -14 65 -25 l28 -19 -37 -3 c-29 -2 -38 -8 -38 -21 0 -14 6
-17 25 -13 22 4 25 1 25 -25 0 -16 -6 -30 -12 -31 -7 -2 -26 -4 -43 -6 -16 -2
-35 -4 -41 -5 -5 0 -18 -7 -27 -14 -16 -11 -16 -14 1 -47 22 -43 53 -91 69
-108 7 -7 14 -18 14 -23 1 -5 2 -14 3 -20 0 -6 9 -16 19 -23 9 -7 17 -17 17
-21 0 -15 62 -85 76 -85 8 0 14 -5 14 -12 0 -6 3 -9 6 -6 3 3 0 25 -6 47 -12
44 -6 81 12 81 5 0 8 -7 4 -15 -7 -20 28 -96 56 -121 32 -30 72 -80 76 -95 5
-18 24 -41 29 -35 5 4 -60 211 -84 266 -13 32 -9 29 41 -26 141 -155 319 -213
519 -168 73 17 153 49 163 66 3 5 -16 -2 -42 -15 -157 -79 -369 -65 -513 32
-79 54 -181 171 -204 234 -10 28 1 20 18 -14 9 -17 18 -29 21 -27 2 3 0 40 -5
84 -6 43 -12 108 -16 143 -3 35 -13 96 -22 134 l-17 70 34 29 c31 26 140 88
155 88 19 0 -22 -103 -48 -121 -5 -4 -5 -9 1 -13 6 -3 7 -19 2 -39 -8 -37 12
-132 34 -157 8 -8 17 -25 20 -38 9 -27 37 -44 56 -32 7 4 19 6 27 3 7 -3 15 2
19 10 3 8 33 25 67 38 33 13 55 25 49 27 -19 6 -42 56 -33 71 4 7 20 18 34 26
25 13 28 12 47 -14 11 -16 33 -34 50 -41 16 -7 30 -19 30 -27 0 -12 8 -14 35
-9 19 4 35 3 35 -1 0 -13 -102 -45 -135 -42 -17 1 -42 1 -56 1 l-27 -2 20 -43
c28 -60 78 -81 167 -72 35 4 84 15 108 26 25 10 53 19 64 19 10 0 19 4 19 9 0
4 27 27 60 50 33 23 67 54 74 69 8 15 25 38 38 52 27 29 33 65 18 104 -6 17
-6 25 0 21 6 -3 10 -13 10 -20 0 -8 6 -12 14 -9 17 7 32 -46 16 -56 -15 -10
-9 -66 8 -62 20 4 14 -16 -8 -23 -22 -7 -28 -35 -6 -35 31 0 -21 -188 -79
-284 -18 -31 -31 -56 -28 -56 14 0 48 51 83 125 58 125 69 151 74 176 3 13 5
24 6 24 1 0 10 38 20 84 17 81 17 126 -1 115 -5 -3 -9 11 -9 31 0 23 -7 41
-20 52 -28 24 -25 58 6 82 29 23 70 36 154 49 l55 8 2 -30 c2 -22 0 -27 -7
-16 -8 12 -10 12 -15 -2 -9 -22 2 -39 20 -31 9 3 15 -1 15 -11 0 -9 4 -16 8
-16 5 0 17 -19 27 -42 53 -129 113 -236 157 -281 28 -29 53 -65 60 -89 6 -22
20 -45 30 -52 10 -6 18 -16 18 -22 0 -6 12 -20 26 -33 16 -14 23 -28 19 -38
-3 -9 -1 -19 5 -23 6 -4 12 -20 13 -36 3 -34 32 -45 40 -14 6 22 31 27 47 8
49 -59 61 -77 66 -104 3 -17 4 -42 2 -55 -3 -21 -8 -24 -53 -25 -27 -1 -64 -4
-82 -7 -39 -7 -121 -53 -136 -78 -7 -11 -17 -19 -23 -19 -6 0 -40 -9 -75 -20
-35 -12 -75 -18 -90 -15 -17 4 -30 1 -39 -10 -7 -8 -23 -15 -36 -15 -13 0 -24
-5 -24 -10 0 -12 -49 -3 -64 11 -16 15 -42 10 -70 -12 -21 -17 -24 -24 -15
-35 6 -8 16 -14 21 -14 16 0 82 -33 102 -52 14 -12 17 -25 13 -47 -4 -17 -2
-33 4 -36 5 -4 1 -18 -11 -35 -11 -15 -20 -39 -20 -52 0 -18 -2 -20 -10 -8 -6
10 -10 11 -10 3 0 -7 -9 -13 -20 -13 -18 0 -19 -3 -10 -20 12 -23 6 -40 -14
-40 -8 0 -27 -16 -43 -35 -17 -19 -37 -35 -44 -35 -8 0 -22 -9 -32 -21 -11
-12 -25 -18 -36 -14 -14 4 -23 -7 -45 -56 -23 -52 -26 -66 -17 -92 6 -16 11
-39 11 -49 0 -35 31 -86 58 -97 15 -6 39 -20 53 -32 24 -19 28 -20 55 -6 16 8
46 34 67 56 29 31 44 40 58 36 29 -10 99 5 99 20 0 18 32 29 41 14 4 -8 21
-10 47 -5 31 4 43 2 49 -9 5 -9 34 -18 71 -23 43 -6 67 -15 77 -28 11 -15 17
-17 32 -8 10 6 19 20 21 30 6 36 36 65 70 66 18 1 35 5 38 10 3 4 15 8 28 8
16 0 25 -9 34 -33 15 -41 15 -67 2 -67 -5 0 -10 -4 -10 -10 0 -5 14 -10 30
-10 17 0 30 5 30 10 0 6 6 10 14 10 7 0 33 18 57 40 24 22 49 40 56 40 7 0 17
9 23 19 16 31 48 36 81 12 l29 -22 0 46 c0 44 0 45 33 44 17 0 55 -4 82 -9 39
-6 43 -8 18 -9 l-33 -1 0 -80 c0 -79 0 -80 25 -80 23 0 25 4 25 40 0 32 4 40
18 40 25 0 42 53 42 131 0 51 4 68 19 81 17 14 20 15 25 2 3 -9 11 -12 17 -8
8 5 10 -3 7 -24 -2 -17 -2 -30 2 -29 3 1 15 -7 26 -18 17 -16 21 -31 19 -75
-1 -30 3 -61 9 -68 7 -10 5 -16 -5 -23 -12 -8 -12 -10 0 -18 9 -6 12 -19 8
-37 -3 -16 -7 -38 -9 -49 -4 -28 -21 -36 -57 -29 -32 7 -43 24 -15 24 28 0 11
33 -19 37 -47 6 -59 -12 -56 -85 2 -59 0 -66 -19 -73 -26 -10 -26 -9 -7 -45
22 -42 19 -58 -16 -78 -33 -19 -34 -35 -2 -51 26 -13 57 -45 44 -45 -5 0 -13
4 -16 10 -3 5 -17 9 -31 8 -19 -2 -22 -5 -12 -13 11 -9 38 -49 38 -57 0 -2
-20 -4 -45 -5 -31 -1 -45 2 -45 12 0 12 -21 25 -42 25 -6 0 -8 -10 -4 -25 9
-34 -22 -65 -52 -54 -13 5 -22 4 -22 -1 0 -13 -57 -13 -65 0 -8 13 -25 13 -25
-1 0 -6 -6 -17 -14 -25 -13 -12 -16 -12 -23 0 -11 18 -53 31 -53 16 0 -6 7
-18 16 -27 20 -21 15 -68 -8 -67 -13 1 -18 -6 -18 -27 0 -18 -5 -29 -14 -29
-8 0 -21 -3 -30 -6 -9 -4 -16 -1 -16 6 0 7 -11 23 -25 36 -31 29 -32 48 -1 81
20 21 23 31 15 45 -6 12 -19 18 -32 16 -17 -2 -22 -9 -20 -31 2 -26 1 -26 -19
-13 -23 16 -48 11 -48 -10 0 -7 8 -18 18 -23 16 -10 16 -10 -1 -11 -11 0 -27
-10 -37 -22 -17 -22 -19 -22 -37 -5 -27 24 -29 22 -25 -23 3 -25 0 -40 -7 -40
-6 0 -11 5 -11 10 0 6 -4 10 -9 10 -5 0 -14 -24 -19 -52 -8 -49 -9 -51 -17
-24 -5 20 -4 31 6 37 16 10 15 10 -23 13 -16 1 -28 -3 -28 -10 0 -6 -7 -17
-15 -24 -12 -10 -20 -9 -40 4 -14 9 -30 14 -36 11 -5 -4 -19 4 -30 17 l-20 23
5 -37 c5 -42 0 -47 -20 -20 -13 16 -13 16 -14 0 0 -10 -4 -18 -10 -18 -5 0
-10 -8 -10 -17 -1 -15 -4 -14 -20 6 -11 13 -20 29 -20 37 0 8 -10 14 -25 14
-16 0 -25 6 -25 16 0 10 -6 14 -15 10 -8 -3 -15 -3 -15 0 0 3 7 12 15 20 9 10
15 35 15 67 0 45 -4 56 -30 80 -16 16 -30 37 -30 47 0 20 -27 46 -37 36 -4 -4
-1 -11 7 -16 11 -7 10 -13 -10 -32 -46 -44 -57 -34 -106 102 -15 41 -37 87
-51 101 -14 15 -25 41 -27 65 -4 39 -20 63 -90 138 -19 20 -30 27 -33 18 -3
-8 -14 -1 -31 18 -15 16 -32 30 -38 30 -15 0 -134 111 -134 125 0 18 -98 115
-117 115 -20 1 -57 37 -93 93 -14 20 -30 35 -37 33 -6 -3 -14 0 -17 7 -2 7 -5
2 -5 -10 -1 -12 -4 -29 -8 -38 -5 -14 -2 -16 17 -10 14 4 20 3 17 -3 -4 -5 11
-33 33 -62 45 -61 46 -62 25 -54 -8 4 -15 10 -15 15 0 5 -5 9 -11 9 -6 0 0
-13 13 -29 13 -15 27 -26 32 -23 5 3 6 0 3 -5 -4 -6 14 -32 39 -57 25 -25 42
-51 39 -56 -3 -6 0 -13 8 -16 9 -3 13 -13 10 -25 -4 -15 0 -22 16 -26 17 -4
21 -12 19 -32 -3 -25 -6 -26 -90 -33 -113 -10 -148 -25 -195 -87 -43 -57 -66
-62 -143 -35 -87 31 -212 -3 -275 -73 l-33 -37 -59 18 c-32 10 -90 34 -130 52
-84 40 -154 44 -218 15 -22 -10 -65 -21 -95 -25 -33 -4 -91 -24 -145 -51 -49
-24 -139 -62 -200 -83 -60 -22 -168 -64 -240 -94 -71 -31 -141 -59 -155 -63
-79 -22 -313 -168 -368 -229 -19 -21 -42 -36 -55 -36 -43 0 -67 -13 -88 -46
-17 -28 -20 -43 -14 -83 9 -67 -13 -105 -87 -148 -39 -24 -360 -354 -458 -473
-96 -115 -188 -218 -260 -290 -126 -126 -200 -207 -255 -280 -28 -35 -58 -73
-67 -84 -10 -11 -18 -23 -18 -26 0 -4 -12 -20 -26 -36 -14 -16 -34 -41 -43
-57 -10 -15 -36 -46 -57 -70 -22 -23 -50 -55 -62 -72 -13 -16 -60 -69 -104
-117 -85 -93 -121 -139 -182 -228 -20 -30 -73 -92 -118 -137 -44 -46 -93 -100
-109 -120 -17 -21 -106 -114 -198 -208 -92 -93 -193 -204 -224 -245 -110 -147
-125 -160 -197 -175 -36 -8 -95 -14 -132 -15 -37 0 -78 -5 -92 -11 -28 -13
-52 -65 -61 -129 -3 -25 -10 -65 -15 -90 -5 -25 -11 -62 -15 -82 -4 -25 -20
-53 -50 -85 -25 -26 -60 -77 -79 -113 -44 -86 -163 -280 -187 -306 -10 -11
-19 -23 -19 -27 0 -3 1012 -6 2249 -7 l2248 0 12 28 c14 34 154 170 196 192
17 8 50 29 74 48 25 18 56 35 70 39 14 3 48 25 76 47 58 48 137 96 157 96 8 0
34 18 58 40 25 22 57 45 73 52 15 7 27 16 27 20 0 21 42 4 84 -33 79 -70 101
-126 123 -311 5 -41 -13 -123 -43 -203 -6 -13 123 -15 1224 -15 l1229 0 7 42
c9 58 43 104 93 129 22 11 44 27 47 35 6 16 65 44 93 44 14 0 15 -2 5 -9 -9
-5 -12 -23 -10 -52 4 -43 4 -44 15 -17 14 31 56 76 93 100 29 18 120 44 225
64 39 7 111 22 160 33 240 54 288 63 391 68 92 5 127 2 200 -15 49 -11 107
-23 130 -26 23 -3 68 -18 100 -33 48 -21 81 -28 179 -34 66 -4 144 -14 174
-22 60 -17 89 -13 71 8 -13 15 -105 31 -230 40 -104 8 -159 21 -167 41 -6 17
-54 44 -98 55 -16 4 -57 15 -90 24 -51 15 -90 16 -260 11 -110 -4 -231 -9
-270 -12 -126 -11 -420 -5 -592 12 -111 11 -282 17 -508 19 -198 2 -350 7
-365 13 -46 18 -131 94 -152 135 -11 23 -23 69 -26 103 -4 51 0 71 21 116 13
31 35 63 48 72 138 97 143 99 279 104 63 2 132 3 153 3 126 -6 250 -5 302 1
33 4 161 12 285 18 124 5 252 12 285 16 73 7 311 -23 515 -66 348 -73 423 -83
587 -78 120 4 145 7 163 23 11 10 20 21 20 25 0 8 -104 -5 -119 -15 -13 -7
-142 10 -226 30 -33 8 -76 17 -95 19 -19 2 -48 9 -65 14 -16 6 -97 18 -180 27
-82 9 -166 20 -185 25 -57 14 -150 20 -410 27 -335 9 -466 7 -527 -10 -37 -10
-103 -14 -215 -13 -150 1 -167 3 -209 24 -89 46 -159 135 -159 203 0 44 29
139 53 173 12 17 51 43 95 64 69 33 81 35 199 40 109 4 127 7 144 25 16 17 21
18 35 6 22 -18 304 -14 509 6 77 7 165 16 195 19 98 8 382 -35 620 -96 85 -21
216 -49 290 -62 122 -21 149 -29 275 -88 77 -36 165 -77 197 -91 31 -14 77
-46 101 -71 45 -45 117 -173 117 -207 0 -19 54 -173 71 -203 27 -46 123 -300
144 -381 13 -49 35 -127 49 -173 22 -71 51 -198 60 -259 3 -17 35 -18 604 -21
330 -1 874 -1 1209 0 l608 3 -57 27 c-31 15 -80 30 -108 34 -61 8 -83 27 -117
104 -30 67 -144 262 -228 390 -35 52 -85 130 -111 172 -27 42 -90 141 -141
220 -51 79 -115 181 -144 228 -28 47 -76 124 -105 172 -29 48 -91 138 -137
200 -102 137 -120 170 -147 282 -38 152 -114 293 -221 411 -43 47 -75 100
-143 240 -49 99 -110 210 -136 246 -85 117 -89 131 -78 234 11 107 3 236 -17
276 -9 16 -28 35 -44 44 -16 8 -32 24 -36 35 -3 11 -24 30 -45 43 -22 13 -59
41 -82 63 -60 56 -232 192 -298 235 -30 20 -91 55 -135 79 -44 23 -129 75
-190 115 -60 40 -167 103 -237 140 l-127 66 -143 14 c-79 8 -161 19 -183 25
-48 12 -218 37 -336 49 -74 8 -100 17 -190 62 -112 57 -173 70 -268 57 -86
-11 -306 46 -441 114 -58 30 -145 66 -195 82 -49 16 -126 46 -170 67 -44 21
-92 41 -107 44 -45 11 -30 68 17 61 11 -2 14 -1 8 1 -7 3 -13 11 -13 20 0 13
2 13 17 2 15 -12 16 -12 11 3 -4 9 -4 19 0 22 8 9 14 36 15 68 0 15 7 30 15
33 12 4 12 8 1 21 -10 13 -10 17 0 24 8 4 10 13 6 20 -4 7 2 25 14 41 11 15
21 33 21 38 0 6 9 15 20 21 25 14 25 25 -1 61 -15 22 -17 29 -6 29 9 0 12 9 9
28 -2 16 2 35 10 43 7 8 12 28 11 44 -6 65 -3 149 5 157 10 10 -7 100 -20 109
-12 8 -17 68 -7 75 5 3 4 14 -1 25 -7 13 -7 19 0 19 5 0 10 7 10 15 0 8 -3 15
-8 15 -17 0 -18 189 -1 200 4 3 8 21 9 40 4 61 1 73 -15 67 -15 -6 -23 21 -28
88 -2 25 2 31 21 33 59 9 121 107 130 206 3 40 8 54 12 41 14 -38 32 91 25
174 -6 64 -3 87 14 138 12 35 21 80 21 101 0 21 6 44 13 51 10 10 9 12 -3 11
-27 -4 -40 0 -40 11 0 6 7 8 16 5 11 -4 15 -2 11 8 -3 8 -3 16 1 18 4 2 14 25
23 51 11 31 13 44 5 38 -9 -7 -16 -7 -24 1 -9 9 -12 7 -12 -10 0 -12 -4 -22
-9 -22 -5 0 -7 8 -4 19 3 10 0 22 -6 25 -7 5 -11 -5 -11 -28 0 -44 -9 -66 -25
-66 -8 0 -17 -5 -21 -12 -5 -8 -2 -9 9 -5 10 3 17 2 17 -3 0 -6 -20 -10 -45
-10 -25 0 -45 5 -45 10 0 6 -9 10 -20 10 -11 0 -20 5 -20 10 0 6 7 10 16 10
10 0 14 5 10 15 -3 10 1 18 11 22 9 4 18 2 20 -4 3 -7 11 -7 28 1 28 12 35 29
8 19 -12 -5 -14 -3 -8 7 6 10 4 12 -8 7 -10 -3 -17 -2 -17 3 0 6 9 10 19 10
32 0 51 11 51 29 0 14 -6 17 -32 12 -32 -4 -32 -5 -8 -11 22 -6 21 -7 -14 -13
-44 -7 -59 -1 -36 13 13 8 12 10 -2 10 -10 0 -24 13 -33 30 -19 37 -19 40 5
40 11 0 20 7 20 15 0 9 -9 15 -22 15 l-23 0 25 21 25 20 -25 -6 c-24 -6 -24
-5 5 19 28 24 29 26 8 26 -12 0 -24 4 -27 8 -2 4 10 8 29 8 19 0 31 -4 28 -10
-3 -5 -1 -6 6 -2 6 4 9 12 6 17 -4 5 -2 9 4 9 5 0 8 12 6 27 -2 19 5 35 21 50
25 23 31 47 15 57 -5 3 -14 -8 -20 -25 -6 -18 -19 -38 -28 -45 -31 -23 -36
-15 -10 15 31 37 55 127 38 144 -8 8 -11 3 -11 -18 -1 -25 -2 -27 -11 -12 -13
23 -29 22 -29 -2 0 -28 -27 -88 -43 -94 -20 -8 -47 26 -33 41 27 28 36 42 36
54 0 7 7 26 15 42 14 26 14 30 -1 41 -12 8 -15 21 -12 45 6 40 -9 109 -29 132
-13 14 -12 17 6 23 24 7 18 31 -10 40 -10 4 -19 11 -19 17 0 15 31 37 53 38 9
0 17 5 17 11 0 6 -7 8 -17 5 -16 -6 -16 -6 0 12 9 10 15 21 12 24 -3 3 4 13
15 23 31 28 24 35 -30 35 l-51 0 7 50 c4 33 3 55 -5 64 -15 18 4 61 21 50 6
-4 4 3 -5 17 -9 13 -17 31 -17 41 0 21 -16 24 -23 6 -6 -21 -34 8 -41 43 -3
17 -19 47 -35 67 -15 21 -32 47 -36 60 -4 14 -12 21 -20 18 -8 -3 -19 2 -27
11 -7 9 -45 42 -83 72 -69 55 -122 84 -178 96 -16 3 -25 10 -21 16 3 6 12 8
20 5 8 -3 14 -1 14 4 0 6 -7 10 -15 10 -8 0 -15 5 -15 10 0 6 -13 10 -29 10
-17 0 -33 -4 -36 -10 -3 -5 -11 -10 -16 -10 -6 0 -7 5 -4 10 3 6 -1 10 -10 10
-28 0 -70 27 -85 54 -8 15 -20 24 -27 22 -19 -7 -16 1 7 24 11 11 20 27 20 35
0 8 5 15 10 15 6 0 10 10 10 23 0 13 7 32 15 43 8 10 14 24 14 29 1 6 -8 -1
-19 -15 -11 -14 -20 -30 -20 -36 0 -14 -45 -56 -52 -48 -9 8 -48 -5 -48 -16 0
-4 10 -6 23 -2 21 5 21 4 5 -15 -10 -11 -18 -26 -18 -34 0 -12 -2 -11 -10 1
-9 13 -10 13 -10 0 0 -8 -9 -21 -21 -28 -19 -12 -20 -11 -14 8 4 13 2 20 -5
18 -7 -2 -15 3 -18 11 -3 10 0 12 11 8 9 -3 24 1 34 11 16 16 15 17 -11 20
-16 2 -33 -1 -39 -7 -19 -19 -47 -13 -47 10 0 28 -23 19 -31 -12 -7 -24 -7
-24 -9 4 -1 15 -3 31 -4 36 0 5 -16 27 -34 50 -50 62 -154 84 -194 41 -11 -12
-27 -19 -35 -16 -9 4 -21 2 -27 -2 -6 -5 -37 -3 -73 5 -50 11 -61 17 -56 30 5
12 2 15 -10 10 -12 -5 -17 -1 -17 13 0 11 4 20 9 20 6 0 5 14 -2 33 -8 23 -12
27 -15 14 -2 -9 -8 -15 -13 -12 -5 4 -9 2 -9 -4 0 -5 -34 -12 -75 -16 -71 -7
-78 -6 -115 20 -21 15 -45 25 -52 22 -7 -2 4 -11 25 -20 20 -9 37 -21 37 -26
0 -15 -2 -14 -65 14 -30 13 -58 31 -61 40 -4 9 -13 13 -23 10 -9 -3 -48 10
-87 29 -63 31 -94 43 -134 51 -8 1 -35 -1 -60 -6z m172 -161 c32 -13 58 -26
58 -30 0 -5 -3 -7 -7 -7 -20 3 -26 -2 -13 -11 12 -8 9 -10 -14 -10 -24 0 -28
3 -23 23 6 20 4 20 -16 -5 l-22 -27 -20 23 c-11 12 -21 26 -23 32 -1 5 -20 8
-42 8 -36 -2 -48 5 -36 17 15 14 106 7 158 -13z m408 -3 c0 -16 -36 -20 -77
-9 -40 11 -25 24 27 24 38 0 50 -4 50 -15z m-516 -24 c3 -5 -6 -11 -19 -14
-25 -4 -40 4 -28 17 9 9 41 7 47 -3z m206 -17 c0 -2 -7 -4 -15 -4 -8 0 -15 4
-15 10 0 5 7 7 15 4 8 -4 15 -8 15 -10z m-711 -25 l44 -21 -32 -19 c-17 -10
-31 -23 -31 -29 0 -5 -5 -10 -12 -10 -9 0 -9 3 0 12 17 17 15 25 -7 31 -12 3
-18 13 -18 31 0 31 2 32 56 5z m851 -13 c0 -9 -30 -14 -35 -6 -4 6 3 10 14 10
12 0 21 -2 21 -4z m760 -179 c0 -3 -9 -3 -20 0 -20 5 -25 15 -14 26 6 6 34
-16 34 -26z m327 -83 c-3 -3 -12 -4 -19 -1 -8 3 -5 6 6 6 11 1 17 -2 13 -5z
m111 -57 c29 -14 61 -35 73 -46 19 -17 19 -19 2 -18 -10 1 -29 12 -43 25 -41
37 -58 26 -20 -13 19 -19 28 -35 21 -35 -16 0 -92 66 -84 73 5 6 -31 19 -43
16 -13 -3 -44 12 -44 20 0 17 90 2 138 -22z m92 -94 c0 -3 -7 -2 -16 1 -8 3
-12 2 -9 -4 3 -6 19 -10 34 -10 22 0 39 -12 75 -54 25 -30 46 -58 46 -63 1 -4
14 -19 30 -33 46 -37 36 -41 -31 -12 -60 26 -91 49 -188 140 l-45 42 31 -6
c17 -3 33 -2 37 5 6 9 36 5 36 -6z m-1040 -161 c0 -5 32 -9 71 -10 40 -1 104
-9 143 -17 39 -8 74 -15 79 -15 4 0 7 -6 7 -14 0 -9 16 -17 41 -21 22 -4 38
-9 35 -12 -3 -3 4 -14 15 -26 22 -24 24 -48 7 -65 -10 -10 -6 -19 20 -43 37
-34 39 -45 15 -79 -24 -35 -33 -40 -81 -40 -35 0 -42 -3 -40 -17 2 -13 -7 -19
-42 -26 -95 -18 -95 -18 -80 -27 10 -6 2 -10 -25 -13 -22 -2 11 -2 74 1 63 2
130 11 148 18 40 17 133 19 133 3 0 -8 5 -7 16 2 13 10 17 10 24 -1 15 -24 43
8 36 42 -5 25 -4 27 10 16 39 -33 45 -42 41 -60 -3 -10 2 -23 13 -31 12 -8 20
-32 25 -71 5 -34 13 -60 21 -63 8 -3 17 -23 20 -44 4 -21 10 -39 15 -39 12 0
12 -77 0 -82 -4 -1 -2 -21 4 -43 9 -28 13 -33 14 -17 1 19 6 22 46 22 48 0 69
-20 46 -43 -16 -16 -14 -38 5 -51 12 -9 13 -17 5 -40 -6 -15 -9 -32 -5 -37 8
-13 38 -11 52 3 9 9 12 8 12 -6 0 -9 5 -14 10 -11 6 3 10 1 10 -4 0 -6 -5 -11
-12 -11 -6 0 -4 -7 5 -18 10 -10 14 -22 10 -25 -8 -9 28 -117 40 -117 13 0 32
-23 32 -40 0 -18 -19 -40 -34 -40 -6 0 -11 -4 -11 -10 0 -5 -12 -10 -27 -11
-25 0 -26 -1 -8 -10 21 -10 21 -10 -66 8 -18 3 -29 1 -29 -6 0 -6 8 -12 18
-12 16 -1 16 -2 0 -6 -10 -2 -18 -8 -18 -13 0 -5 8 -11 18 -13 9 -3 -28 -5
-82 -6 -86 -1 -97 1 -82 12 18 13 18 14 0 21 -14 6 -16 9 -5 15 8 5 10 14 6
22 -6 9 -10 7 -16 -9 -11 -28 -33 -29 -24 -2 5 14 2 20 -9 20 -29 0 -17 18 26
39 l41 20 24 -25 c13 -14 23 -29 23 -35 0 -5 18 -9 41 -9 22 0 38 4 34 9 -3 5
-1 12 5 16 12 8 13 65 1 65 -15 0 -23 52 -10 61 10 6 10 11 0 23 -11 13 -11
16 0 16 9 1 8 5 -5 15 -11 8 -16 15 -11 15 4 0 -1 8 -12 18 -11 9 -22 26 -24
36 -6 28 -35 44 -51 28 -10 -10 -10 -17 0 -32 11 -18 10 -20 -10 -20 -36 0
-109 25 -118 39 -4 8 -13 10 -19 7 -6 -4 -11 -2 -11 4 0 13 -123 2 -128 -11
-2 -5 -9 -9 -16 -9 -7 0 -21 -9 -30 -19 -17 -19 -80 -43 -146 -56 -56 -10
-130 -36 -130 -45 0 -6 -54 -17 -116 -23 -28 -3 -54 -25 -54 -47 0 -10 -7 -34
-15 -53 -8 -20 -15 -52 -15 -70 0 -21 -8 -41 -20 -52 -11 -10 -20 -24 -20 -32
0 -8 -4 -12 -9 -8 -6 3 -13 -11 -17 -32 -8 -47 -30 -73 -60 -73 -16 0 -24 -7
-26 -22 -2 -15 -11 -24 -25 -26 -13 -2 -23 -7 -23 -12 0 -5 -12 -21 -26 -35
-18 -18 -25 -34 -22 -50 3 -13 1 -30 -3 -37 -4 -7 -3 -15 3 -19 11 -7 -79 -36
-139 -46 -26 -4 -33 -2 -33 11 0 9 -8 16 -19 16 -12 0 -20 9 -24 29 -4 19 -14
31 -30 35 -15 3 -30 18 -38 38 -17 42 -34 55 -86 63 -48 7 -77 30 -68 53 7 18
-3 52 -15 52 -5 0 -7 -8 -4 -17 5 -17 5 -17 -9 0 -8 9 -17 17 -21 17 -10 0 -7
-35 5 -47 9 -9 7 -11 -8 -7 -11 3 -25 16 -31 30 -6 13 -24 26 -39 30 -15 4
-39 15 -53 25 -36 24 -125 27 -172 5 -20 -10 -41 -15 -46 -12 -6 3 -15 -1 -22
-9 -7 -8 -21 -15 -31 -15 -10 0 -21 -5 -24 -11 -4 -6 -13 -8 -20 -5 -8 3 -24
-3 -37 -13 -13 -10 -29 -16 -37 -13 -10 3 -12 0 -8 -12 5 -11 1 -16 -12 -16
-28 0 -51 -11 -51 -24 0 -6 -9 -17 -20 -24 -11 -7 -20 -21 -20 -32 0 -10 -10
-26 -22 -35 -15 -11 -19 -19 -11 -22 7 -2 10 -10 7 -17 -3 -8 4 -16 17 -19 21
-6 71 21 95 52 8 10 15 11 32 2 29 -16 63 -14 56 3 -10 25 29 29 49 4 11 -13
14 -24 8 -26 -7 -2 -6 -10 2 -22 10 -16 7 -24 -16 -48 -15 -16 -25 -31 -22
-34 3 -2 -34 -22 -83 -42 -48 -21 -120 -56 -160 -77 -40 -22 -77 -37 -82 -34
-5 3 -17 32 -26 63 -9 31 -22 68 -30 82 -36 70 -94 235 -108 310 -9 47 -20
105 -25 130 -10 50 -7 136 10 280 20 172 49 250 129 350 29 35 64 89 78 120
67 143 144 222 229 235 27 3 66 15 89 26 47 22 191 52 206 43 11 -7 98 15 98
26 0 4 23 6 52 4 39 -2 55 2 65 14 7 10 13 12 13 6 0 -7 9 -14 20 -17 11 -3
18 -1 14 4 -8 13 20 11 33 -2 6 -6 17 -8 24 -3 8 4 23 8 34 9 59 4 66 6 59 17
-4 6 -3 8 3 5 5 -3 26 -2 46 3 21 4 37 4 37 -1 0 -4 7 -6 15 -3 8 4 15 12 15
20 0 9 11 12 40 8 30 -4 42 -1 46 10 3 8 19 18 36 21 16 4 32 13 35 21 3 8 13
14 23 14 11 0 22 5 25 10 3 6 17 10 31 10 13 0 24 4 24 9 0 5 16 9 36 9 20 0
41 5 47 11 6 6 21 11 34 11 13 0 23 5 23 10 0 6 20 10 45 10 25 0 45 -4 45 -8z
m-1810 -112 c0 -5 -5 -10 -11 -10 -5 0 -7 5 -4 10 3 6 8 10 11 10 2 0 4 -4 4
-10z m-77 -50 c-5 -19 -23 -39 -23 -25 0 9 20 45 24 45 2 0 2 -9 -1 -20z m-10
-225 c9 -18 9 -19 -6 -6 -10 7 -17 23 -16 35 0 14 2 16 6 6 3 -8 10 -24 16
-35z m3261 -339 c-3 -8 -12 -12 -21 -9 -12 5 -12 7 -1 14 20 13 28 11 22 -5z
m-3337 -488 c-3 -7 -5 -2 -5 12 0 14 2 19 5 13 2 -7 2 -19 0 -25z m3043 -160
c5 -13 9 -17 9 -9 1 11 4 11 16 1 14 -12 41 -87 48 -135 1 -11 6 -26 10 -32 5
-7 5 -18 2 -23 -4 -6 5 -24 20 -42 18 -22 23 -34 16 -41 -16 -16 -13 -27 7
-28 10 0 12 -3 5 -6 -19 -7 -16 -19 10 -45 32 -32 49 -126 63 -337 4 -67 2
-96 -6 -101 -7 -5 -9 -16 -5 -29 3 -12 11 -19 16 -16 12 8 12 -37 -1 -70 -8
-20 -6 -32 5 -48 22 -31 18 -41 -7 -17 -12 11 -31 20 -41 20 -19 0 -19 -1 -4
-18 21 -23 22 -43 2 -36 -11 5 -13 2 -9 -10 4 -11 1 -16 -12 -16 -14 0 -15 -3
-6 -12 7 -7 8 -17 2 -28 -7 -12 -3 -23 12 -40 17 -18 18 -24 7 -31 -8 -5 -9
-9 -4 -9 6 -1 0 -5 -12 -10 -15 -6 -20 -15 -16 -29 6 -23 -21 -31 -30 -8 -3 7
-6 5 -6 -5 -1 -21 -21 -24 -21 -4 0 15 -45 15 -112 1 -44 -10 -20 -28 39 -29
49 -1 93 -21 93 -42 0 -7 7 -14 15 -18 8 -3 15 -12 15 -20 0 -19 -20 -32 -29
-19 -10 15 -55 23 -71 13 -12 -8 -10 -10 8 -10 15 0 22 -6 22 -20 0 -11 -5
-20 -11 -20 -5 0 -8 4 -5 8 3 4 -11 9 -30 9 -31 1 -34 -1 -34 -27 0 -17 -7
-33 -17 -38 -22 -13 -28 -115 -7 -136 18 -19 18 -36 -1 -36 -8 0 -15 -3 -15
-8 0 -4 -14 -13 -30 -21 -24 -10 -34 -10 -45 -1 -11 9 -20 6 -42 -16 -17 -17
-23 -29 -15 -32 7 -2 12 -19 12 -39 0 -39 -18 -42 -35 -5 -5 11 -20 27 -33 33
-13 7 -26 26 -29 41 -3 15 -11 28 -17 28 -6 0 -21 21 -33 48 -20 44 -24 47
-60 48 -21 0 -41 -4 -45 -10 -4 -6 -22 2 -47 22 -39 32 -41 32 -41 10 0 -17
-3 -19 -12 -10 -7 7 -22 12 -33 12 -12 0 -30 9 -40 20 -16 18 -18 34 -13 152
3 73 2 122 -2 108 -8 -24 -8 -24 -9 -2 -1 12 -5 22 -11 22 -5 0 -10 17 -10 38
-1 20 -7 48 -15 62 -10 17 -12 42 -8 83 5 47 3 57 -10 57 -8 0 -17 -6 -20 -12
-3 -7 -5 -4 -4 7 1 17 8 20 48 20 26 0 45 3 42 8 -2 4 -23 7 -46 8 -93 1 -157
13 -157 29 0 4 24 3 53 -2 121 -23 300 7 422 70 46 23 144 122 168 168 28 55
57 138 57 166 0 14 3 35 7 45 6 16 8 15 14 -7 l7 -25 1 27 c1 20 7 27 24 30
19 3 22 10 25 56 2 38 0 52 -10 52 -10 0 -13 11 -11 38 2 29 1 33 -6 17 -9
-19 -10 -18 -12 5 -1 14 -2 34 -1 45 2 18 1 19 -9 3 -5 -10 -17 -18 -24 -18
-12 0 -15 17 -15 84 0 75 3 88 24 112 20 24 70 50 99 53 4 1 12 -9 17 -21z
m-190 -157 c-1 -13 -29 45 -29 59 0 8 6 0 14 -19 8 -18 15 -36 15 -40z m-1580
9 c0 -5 -5 -10 -11 -10 -5 0 -7 5 -4 10 3 6 8 10 11 10 2 0 4 -4 4 -10z m1315
-82 c48 -22 25 -57 -73 -107 l-42 -21 20 35 c11 20 20 40 20 45 0 5 4 20 10
34 10 29 26 32 65 14z m352 -40 c-3 -7 -5 -2 -5 12 0 14 2 19 5 13 2 -7 2 -19
0 -25z m495 -79 c15 -30 27 -63 27 -74 0 -13 -8 -4 -21 23 -11 23 -24 42 -29
42 -5 0 -9 9 -9 21 0 11 -4 18 -8 15 -4 -2 -8 4 -8 15 0 32 20 15 48 -42z
m-1137 -3 c16 -16 17 -19 3 -14 -9 4 -18 2 -20 -4 -5 -15 -37 -3 -44 17 -4 8
0 22 7 31 11 13 15 13 23 2 6 -7 20 -22 31 -32z m-554 -23 c13 -16 12 -17 -3
-4 -10 7 -18 15 -18 17 0 8 8 3 21 -13z m1186 -45 c-3 -8 -6 -5 -6 6 -1 11 2
17 5 13 3 -3 4 -12 1 -19z m-1987 -34 c0 -9 7 -22 16 -29 14 -10 4 -18 -66
-54 -48 -25 -101 -63 -126 -89 l-44 -46 0 38 c0 95 96 195 188 196 23 0 32 -4
32 -16z m1924 -20 c15 -40 -4 -116 -54 -214 -62 -122 -261 -208 -460 -198
-108 6 -173 27 -259 84 -57 38 -166 142 -158 151 3 2 24 -16 48 -41 28 -32 47
-45 59 -41 9 3 23 -1 30 -10 15 -18 0 -20 -20 -2 -12 10 -12 9 -1 -5 15 -21
43 -24 39 -5 -2 6 7 22 18 33 16 16 20 30 16 49 -4 25 -3 27 14 20 10 -4 47
-12 82 -16 35 -5 68 -12 75 -16 20 -12 129 -3 144 13 8 8 23 14 34 14 10 0 19
5 19 10 0 6 8 10 18 10 9 0 23 9 30 20 7 11 19 20 27 20 8 0 20 9 27 20 7 11
20 20 28 20 32 0 160 53 160 66 0 17 30 19 31 2 0 -7 5 -3 11 10 13 26 33 29
42 6z m-2644 -25 c0 -18 -18 -9 -23 12 -4 16 -3 18 9 8 8 -6 14 -15 14 -20z
m1692 -77 c4 10 10 10 31 -1 15 -8 27 -18 27 -23 0 -5 -6 -6 -12 -1 -24 14
-47 13 -50 -4 -2 -12 -7 -9 -16 12 -11 25 -11 27 1 16 12 -9 16 -9 19 1z m152
-234 c22 -16 41 -35 42 -43 1 -8 -2 -13 -7 -9 -5 3 -7 9 -4 14 3 5 -3 11 -12
15 -10 3 -34 20 -53 37 -39 34 -25 29 34 -14z m16 -45 c0 -7 -39 17 -46 28 -3
6 5 3 20 -6 14 -10 26 -19 26 -22z m-14 -20 c-6 -6 -36 9 -36 18 0 5 9 4 20
-3 10 -7 18 -14 16 -15z m132 -8 c2 -1 -4 -5 -13 -9 -9 -3 -13 -2 -10 4 3 6 0
10 -7 10 -8 0 -23 7 -34 15 -16 12 -12 12 21 -1 22 -9 41 -17 43 -19z m1012
-335 c-12 -22 -25 -26 -35 -10 -5 8 19 24 43 29 1 1 -2 -8 -8 -19z m-40 -46
c0 -14 -4 -22 -10 -19 -5 3 -10 17 -10 31 0 14 4 22 10 19 6 -3 10 -17 10 -31z
m-120 -165 c0 -6 -4 -7 -10 -4 -5 3 -10 11 -10 16 0 6 5 7 10 4 6 -3 10 -11
10 -16z m87 -4 c0 -17 -13 -20 -21 -6 -4 5 0 12 6 14 7 3 13 6 14 6 0 1 1 -6
1 -14z m-52 -5 c-3 -5 -12 -10 -18 -10 -7 0 -6 4 3 10 19 12 23 12 15 0z m-12
-65 c0 -6 -7 -11 -16 -13 -12 -3 -15 1 -11 13 7 17 25 17 27 0z m-48 -15 c3
-5 1 -10 -4 -10 -6 0 -11 5 -11 10 0 6 2 10 4 10 3 0 8 -4 11 -10z m189 -125
c3 -8 1 -15 -4 -15 -6 0 -10 7 -10 15 0 8 2 15 4 15 2 0 6 -7 10 -15z m-1524
-15 c0 -5 -5 -10 -11 -10 -5 0 -7 5 -4 10 3 6 8 10 11 10 2 0 4 -4 4 -10z
m350 -96 c0 -30 -44 -64 -88 -66 -73 -3 -86 43 -16 57 21 3 47 13 57 20 22 15
47 10 47 -11z m815 -74 c3 -5 1 -10 -4 -10 -6 0 -11 5 -11 10 0 6 2 10 4 10 3
0 8 -4 11 -10z m353 -463 c-1 -7 17 -50 40 -96 23 -46 42 -92 42 -102 0 -10 5
-21 10 -24 6 -3 10 -13 10 -21 0 -9 13 -34 28 -57 40 -59 60 -114 67 -177 7
-53 5 -57 -30 -98 -21 -23 -43 -42 -50 -42 -7 0 -31 -15 -54 -32 -55 -45 -109
-78 -127 -78 -8 0 -14 -5 -14 -11 0 -5 -5 -7 -11 -4 -5 4 -27 -4 -47 -17 -20
-13 -52 -30 -69 -37 -18 -8 -33 -17 -33 -22 0 -5 -6 -9 -13 -9 -7 0 -18 -9
-25 -20 -7 -11 -18 -20 -26 -20 -7 0 -25 -9 -39 -20 -22 -18 -29 -19 -47 -8
-19 11 -24 10 -40 -10 -11 -13 -27 -22 -37 -21 -10 1 -30 -1 -46 -6 -16 -4
-33 -3 -40 3 -6 5 -40 13 -74 17 -58 6 -76 16 -54 29 5 3 11 19 13 35 4 25 0
32 -24 42 -41 17 -36 39 10 40 20 1 40 1 44 0 4 0 28 -2 53 -3 25 0 50 -7 56
-15 11 -12 49 -19 49 -8 0 3 -9 15 -20 27 -15 16 -17 25 -9 35 6 7 18 13 25
13 7 0 21 11 30 25 9 14 32 32 50 40 33 14 46 35 22 35 -8 0 -6 7 5 17 10 10
25 18 35 18 9 0 16 6 14 14 -2 8 3 18 10 22 7 5 13 14 14 21 1 7 8 30 18 50 9
21 16 47 16 58 0 11 3 19 8 19 19 -3 24 2 13 15 -9 10 -8 16 4 26 8 7 20 30
25 51 6 22 21 46 35 55 14 9 25 23 25 30 0 8 5 14 11 14 6 0 8 7 5 16 -5 13
-1 14 24 9 36 -8 42 11 8 25 -13 5 -17 9 -9 9 10 1 11 4 3 14 -8 10 -6 17 8
27 10 7 17 17 14 22 -3 4 0 8 6 8 7 0 9 9 6 23 -3 12 -3 16 0 10 8 -18 24 -16
24 2 0 8 5 15 10 15 6 0 10 6 10 13 0 17 21 38 32 31 5 -3 8 -11 6 -17z m-235
-31 c4 -10 0 -12 -14 -9 -10 3 -16 9 -13 14 8 13 21 11 27 -5z m-48 -6 c3 -6
-1 -7 -9 -4 -18 7 -21 14 -7 14 6 0 13 -4 16 -10z m125 -134 c0 -3 -4 -8 -10
-11 -5 -3 -10 -1 -10 4 0 6 5 11 10 11 6 0 10 -2 10 -4z m-1710 -80 c0 4 8 -3
18 -16 9 -12 34 -39 54 -58 23 -21 40 -48 44 -69 3 -18 10 -36 15 -39 15 -9
79 -113 79 -129 0 -7 5 -17 10 -20 6 -3 10 -16 10 -27 0 -34 63 -128 86 -128
6 0 22 -9 35 -20 12 -12 38 -30 56 -41 38 -24 43 -33 12 -24 -15 5 -19 4 -15
-4 4 -6 15 -11 25 -11 10 0 38 -10 63 -23 42 -21 57 -23 179 -21 74 1 152 5
175 9 43 7 106 -4 104 -19 -1 -5 3 -12 9 -15 14 -9 18 -45 6 -51 -5 -3 -11 5
-13 18 -4 26 -19 30 -24 6 -2 -11 -15 -18 -35 -19 -18 -1 -39 -10 -48 -19 -9
-9 -23 -16 -32 -16 -8 0 -27 -9 -42 -19 -36 -26 -106 -35 -166 -21 -51 11
-155 57 -166 73 -3 5 -10 9 -15 9 -19 0 -221 170 -274 232 -52 59 -106 152
-130 219 -23 68 -50 194 -50 233 0 22 2 25 15 14 8 -7 15 -9 15 -4z m1477 -53
c-3 -10 -5 -4 -5 12 0 17 2 24 5 18 2 -7 2 -21 0 -30z m-22 7 c-3 -5 -13 -10
-21 -10 -8 0 -12 5 -9 10 3 6 13 10 21 10 8 0 12 -4 9 -10z m-1175 -87 c0 -13
-4 -23 -9 -23 -10 0 -21 57 -12 65 8 8 21 -18 21 -42z m865 -443 c3 -5 1 -10
-4 -10 -6 0 -11 5 -11 10 0 6 2 10 4 10 3 0 8 -4 11 -10z m20 -90 c-3 -5 -14
-6 -26 -3 -15 4 -17 8 -8 13 15 10 41 1 34 -10z m-140 -10 c3 -5 -3 -10 -14
-10 -12 0 -21 5 -21 10 0 6 6 10 14 10 8 0 18 -4 21 -10z m682 -801 c8 -8 17
-8 33 1 24 13 95 8 127 -9 10 -5 29 -14 43 -20 50 -23 75 -41 102 -72 33 -38
68 -112 68 -145 0 -12 6 -29 13 -36 6 -7 14 -22 15 -33 2 -11 8 -26 14 -32 6
-7 8 -20 4 -28 -3 -8 -1 -15 4 -15 5 0 9 -16 8 -35 -1 -19 3 -40 9 -47 15 -18
24 -67 25 -128 0 -40 -6 -60 -28 -93 -43 -65 -87 -103 -140 -122 -64 -24 -84
-42 -84 -76 0 -56 -37 -48 -42 9 -1 18 -10 40 -20 49 -10 9 -18 29 -18 44 0
40 -13 43 -39 9 -12 -17 -27 -30 -34 -30 -7 0 -23 -18 -37 -40 -19 -31 -31
-40 -53 -40 -15 0 -30 7 -33 15 -5 12 -9 11 -24 -7 -14 -17 -27 -21 -68 -20
-33 0 -55 -4 -62 -14 -15 -17 -46 -19 -56 -3 -3 6 -14 9 -24 6 -13 -3 -32 11
-62 44 -29 33 -54 51 -76 55 -26 5 -31 10 -27 25 4 12 1 21 -9 25 -9 3 -16 17
-16 30 0 13 -9 33 -20 44 -11 11 -17 20 -12 20 4 0 -1 5 -12 11 -12 7 -14 14
-7 18 12 8 -6 81 -24 93 -10 7 -16 115 -6 133 3 5 6 27 6 49 1 27 8 44 23 56
12 10 22 25 22 34 0 20 39 86 52 86 5 0 13 12 19 28 15 44 81 81 222 127 132
44 204 54 224 34z m226 -976 c6 -33 -1 -53 -19 -53 -10 0 -14 12 -14 40 0 47
25 56 33 13z m757 -1303 c0 -12 -42 -30 -68 -30 -15 0 -15 2 -2 10 12 8 10 10
-10 11 -23 1 -23 2 5 9 45 11 75 11 75 0z"/>
<path d="M8705 8970 c-8 -13 5 -13 25 0 13 8 13 10 -2 10 -9 0 -20 -4 -23 -10z"/>
<path d="M10290 8446 c0 -2 7 -9 15 -16 9 -7 15 -8 15 -2 0 5 -7 12 -15 16 -8
3 -15 4 -15 2z"/>
<path d="M10360 8370 c0 -5 5 -10 11 -10 5 0 7 5 4 10 -3 6 -8 10 -11 10 -2 0
-4 -4 -4 -10z"/>
<path d="M9608 8083 c6 -2 18 -2 25 0 6 3 1 5 -13 5 -14 0 -19 -2 -12 -5z"/>
<path d="M9038 7883 c12 -2 32 -2 45 0 12 2 2 4 -23 4 -25 0 -35 -2 -22 -4z"/>
<path d="M9670 7850 c-21 -18 -49 -32 -76 -36 -27 -4 -44 -12 -44 -20 0 -7
-17 -17 -37 -23 -21 -5 -58 -14 -83 -21 -25 -7 -57 -12 -72 -12 -16 1 -28 -3
-28 -9 0 -6 -24 -7 -65 -3 -46 5 -65 3 -65 -5 0 -6 -10 -11 -22 -11 -19 0 -20
-2 -8 -10 19 -13 167 -3 235 15 62 17 170 30 211 26 18 -1 35 2 39 8 3 6 17
11 31 11 13 0 24 5 24 10 0 6 11 23 25 38 29 31 32 57 9 66 -28 11 -40 7 -74
-24z"/>
<path d="M8855 7845 c-30 -14 -30 -14 -4 -15 14 0 34 7 45 15 25 19 1 19 -41
0z"/>
<path d="M9620 7683 c-8 -4 -21 -12 -28 -20 -7 -7 -19 -13 -27 -13 -17 0 -85
-60 -85 -76 0 -6 7 -14 15 -18 18 -6 84 24 85 39 0 6 14 18 30 27 21 12 30 25
30 43 0 14 -1 25 -2 24 -2 0 -10 -3 -18 -6z"/>
<path d="M8720 7625 c0 -17 2 -18 24 -9 23 9 20 24 -4 24 -11 0 -20 -7 -20
-15z"/>
<path d="M9935 7151 c-3 -5 -1 -12 5 -16 5 -3 10 1 10 9 0 18 -6 21 -15 7z"/>
<path d="M8480 6869 c0 -5 5 -7 10 -4 6 3 10 8 10 11 0 2 -4 4 -10 4 -5 0 -10
-5 -10 -11z"/>
<path d="M8806 6752 c-6 -10 41 -38 49 -30 3 3 3 13 -1 22 -6 17 -39 22 -48 8z"/>
<path d="M10182 6775 c0 -16 2 -22 5 -12 2 9 2 23 0 30 -3 6 -5 -1 -5 -18z"/>
<path d="M10298 6793 c7 -3 16 -2 19 1 4 3 -2 6 -13 5 -11 0 -14 -3 -6 -6z"/>
<path d="M10340 6750 c0 -5 5 -10 10 -10 6 0 10 5 10 10 0 6 -4 10 -10 10 -5
0 -10 -4 -10 -10z"/>
<path d="M10241 6494 c0 -11 3 -14 6 -6 3 7 2 16 -1 19 -3 4 -6 -2 -5 -13z"/>
<path d="M10248 6123 c7 -3 16 -2 19 1 4 3 -2 6 -13 5 -11 0 -14 -3 -6 -6z"/>
<path d="M10152 6060 c13 -21 38 -27 38 -10 0 9 -31 30 -44 30 -4 0 -1 -9 6
-20z"/>
<path d="M10160 5915 c0 -16 16 -20 24 -6 3 5 -1 11 -9 15 -9 3 -15 0 -15 -9z"/>
<path d="M10287 5813 c-13 -12 -7 -23 13 -23 11 0 20 7 20 15 0 15 -21 21 -33
8z"/>
<path d="M10080 5697 c0 -32 16 -44 23 -17 3 10 -1 24 -9 31 -11 9 -14 7 -14
-14z"/>
<path d="M9893 5672 c-32 -5 -29 -17 7 -32 30 -12 60 -8 60 8 0 13 -42 28 -67
24z"/>
<path d="M10125 5670 c-8 -14 3 -30 21 -30 8 0 14 9 14 20 0 21 -24 28 -35 10z"/>
<path d="M9730 5610 c-12 -8 -11 -10 8 -10 12 0 22 5 22 10 0 13 -11 13 -30 0z"/>
<path d="M10200 5594 c0 -27 -10 -36 -26 -23 -8 7 -14 7 -19 -1 -8 -12 17 -23
42 -18 21 4 30 35 14 51 -8 8 -11 5 -11 -9z"/>
<path d="M9800 6726 c0 -9 30 -14 35 -6 4 6 -3 10 -14 10 -12 0 -21 -2 -21 -4z"/>
<path d="M10110 6460 c0 -5 5 -10 10 -10 6 0 10 5 10 10 0 6 -4 10 -10 10 -5
0 -10 -4 -10 -10z"/>
<path d="M9483 6142 c12 -13 14 -22 7 -25 -6 -3 -6 -5 2 -3 21 4 19 21 -4 35
-23 14 -23 13 -5 -7z"/>
<path d="M9898 3853 c7 -3 16 -2 19 1 4 3 -2 6 -13 5 -11 0 -14 -3 -6 -6z"/>
<path d="M10097 2713 c-4 -3 -7 -13 -7 -21 0 -12 3 -12 15 -2 8 7 15 16 15 21
0 11 -14 12 -23 2z"/>
<path d="M10394 2671 c-18 -19 32 -59 66 -53 10 1 25 -9 34 -23 12 -19 25 -25
51 -25 18 0 36 -4 39 -8 8 -14 66 -1 66 14 0 7 -9 18 -20 24 -11 6 -20 17 -20
26 0 12 -8 13 -36 8 -26 -5 -35 -3 -30 4 4 7 -7 14 -29 18 -19 3 -35 9 -35 13
0 7 -79 9 -86 2z"/>
<path d="M10240 2650 c0 -5 5 -10 11 -10 5 0 7 5 4 10 -3 6 -8 10 -11 10 -2 0
-4 -4 -4 -10z"/>
<path d="M10073 2639 c-40 -12 -46 -21 -33 -53 7 -19 6 -26 -3 -26 -7 0 -18
-13 -24 -30 -10 -27 -16 -30 -55 -30 -51 0 -68 -9 -66 -35 1 -11 -2 -30 -6
-42 -8 -25 6 -37 34 -28 27 9 25 25 -2 25 -21 1 -22 1 -5 11 27 16 141 1 127
-15 -5 -7 -7 -16 -4 -19 4 -3 -10 -14 -30 -23 -20 -10 -36 -21 -36 -26 0 -4
25 -8 55 -8 39 0 55 4 55 13 0 8 11 24 25 37 14 13 25 32 25 42 0 15 -8 18
-51 18 -45 0 -50 2 -39 15 7 8 19 15 26 15 19 0 18 26 -1 34 -8 3 -15 12 -15
21 0 12 13 15 58 16 68 1 104 10 110 27 5 16 -30 15 -95 -2 -68 -18 -78 -3
-13 19 l50 17 -24 19 c-13 10 -26 19 -28 18 -1 0 -17 -5 -35 -10z"/>
<path d="M9960 2620 c0 -5 5 -10 10 -10 6 0 10 5 10 10 0 6 -4 10 -10 10 -5 0
-10 -4 -10 -10z"/>
<path d="M10282 2605 c3 -14 1 -28 -3 -31 -13 -8 -11 -94 2 -94 16 0 53 22 62
36 5 9 26 14 57 14 28 0 50 4 50 10 0 15 -38 31 -68 29 -54 -4 -65 0 -59 21 3
13 -1 24 -13 30 -28 15 -33 12 -28 -15z"/>
<path d="M10185 2540 c4 -6 11 -8 16 -5 14 9 11 15 -7 15 -8 0 -12 -5 -9 -10z"/>
<path d="M10532 2483 c-19 -13 -28 -14 -43 -5 -33 21 -119 15 -155 -10 -35
-24 -62 -63 -51 -74 3 -4 22 3 42 15 43 25 46 26 39 6 -5 -11 0 -14 20 -13 18
2 30 11 39 30 13 31 57 40 57 13 0 -8 -6 -15 -14 -15 -7 0 -25 -9 -38 -20 -14
-10 -27 -18 -29 -17 -2 1 2 -4 10 -10 12 -11 2 -13 -53 -13 -59 0 -70 -3 -90
-25 -13 -14 -31 -25 -40 -25 -16 0 -42 -48 -31 -58 3 -3 5 0 5 6 0 7 12 12 28
12 30 1 66 23 55 34 -4 4 -1 11 7 16 19 12 33 13 26 1 -4 -5 2 -7 12 -4 10 2
34 0 53 -4 37 -10 51 -40 26 -58 -21 -15 -48 -83 -36 -90 15 -10 27 3 34 36 4
17 25 50 46 72 34 37 41 40 59 29 39 -24 50 -16 50 38 0 28 -7 65 -16 82 l-16
31 39 -5 c22 -3 48 -1 58 4 15 9 13 12 -21 24 -47 17 -44 17 -72 -3z m-77
-133 c3 -5 -1 -10 -9 -10 -9 0 -16 5 -16 10 0 6 4 10 9 10 6 0 13 -4 16 -10z"/>
<path d="M9962 2294 c-22 -15 -22 -16 -5 -45 19 -32 53 -39 73 -13 7 8 23 14
34 12 24 -3 46 8 46 23 0 5 -17 7 -40 3 -45 -7 -56 10 -17 26 18 7 14 9 -23 9
-26 1 -55 -6 -68 -15z"/>
<path d="M9982 9100 c0 -14 2 -19 5 -12 2 6 2 18 0 25 -3 6 -5 1 -5 -13z"/>
<path d="M9170 9094 c0 -6 7 -19 15 -30 8 -10 14 -14 14 -9 0 6 -6 19 -14 29
-8 11 -15 15 -15 10z"/>
<path d="M8915 9060 c3 -5 8 -10 11 -10 2 0 4 5 4 10 0 6 -5 10 -11 10 -5 0
-7 -4 -4 -10z"/>
<path d="M7910 8990 c-9 -6 -10 -10 -3 -10 6 0 15 5 18 10 8 12 4 12 -15 0z"/>
<path d="M9267 8963 c-3 -5 19 -13 49 -19 43 -8 52 -7 42 2 -17 16 -84 28 -91
17z"/>
<path d="M10028 8833 c7 -3 16 -2 19 1 4 3 -2 6 -13 5 -11 0 -14 -3 -6 -6z"/>
<path d="M10070 8820 c8 -5 20 -10 25 -10 6 0 3 5 -5 10 -8 5 -19 10 -25 10
-5 0 -3 -5 5 -10z"/>
<path d="M10110 8806 c0 -2 7 -7 16 -10 8 -3 12 -2 9 4 -6 10 -25 14 -25 6z"/>
<path d="M10185 8760 c7 -11 65 -43 65 -36 0 2 -16 13 -36 25 -19 12 -32 16
-29 11z"/>
<path d="M10300 8677 c19 -20 37 -37 39 -37 9 0 -47 64 -60 68 -8 3 2 -11 21
-31z"/>
<path d="M10126 8692 c-4 -3 20 -14 51 -25 32 -11 75 -35 96 -54 35 -31 58
-39 43 -15 -19 31 -176 109 -190 94z"/>
<path d="M10340 8569 c0 -9 10 -24 21 -35 22 -19 22 -19 11 1 -6 11 -16 27
-22 35 -8 13 -10 13 -10 -1z"/>
<path d="M10390 8474 c0 -8 5 -12 10 -9 6 4 8 11 5 16 -9 14 -15 11 -15 -7z"/>
<path d="M10670 7680 c0 -5 5 -10 11 -10 5 0 7 5 4 10 -3 6 -8 10 -11 10 -2 0
-4 -4 -4 -10z"/>
<path d="M10760 7149 c0 -5 5 -7 10 -4 6 3 10 8 10 11 0 2 -4 4 -10 4 -5 0
-10 -5 -10 -11z"/>
<path d="M10685 6251 c-3 -6 -10 -9 -15 -6 -10 6 -22 -23 -14 -36 9 -16 20
-10 33 17 12 26 9 45 -4 25z"/>
<path d="M7478 6213 c7 -3 16 -2 19 1 4 3 -2 6 -13 5 -11 0 -14 -3 -6 -6z"/>
<path d="M8560 5835 c-19 -22 -8 -25 13 -3 9 10 13 18 8 18 -5 0 -14 -7 -21
-15z"/>
<path d="M8514 5795 c-10 -8 -14 -15 -8 -15 6 0 17 7 24 15 16 19 9 19 -16 0z"/>
<path d="M8677 5656 c3 -13 0 -32 -6 -43 -9 -16 -11 -16 -12 7 -1 18 -4 13
-10 -15 -11 -57 -11 -95 2 -95 5 0 8 4 4 10 -9 15 17 49 33 42 12 -4 14 1 9
28 -4 18 -7 45 -7 61 0 16 -4 29 -9 29 -4 0 -6 -11 -4 -24z"/>
<path d="M7871 5556 c-11 -13 -8 -20 13 -41 14 -14 26 -29 26 -33 0 -18 60
-147 69 -150 6 -2 11 -10 11 -18 0 -8 5 -14 10 -14 19 0 10 29 -45 137 -71
141 -69 137 -84 119z"/>
<path d="M8020 5266 c0 -9 7 -16 16 -16 9 0 14 5 12 12 -6 18 -28 21 -28 4z"/>
<path d="M10065 5050 c-3 -5 1 -10 9 -10 9 0 16 5 16 10 0 6 -4 10 -9 10 -6 0
-13 -4 -16 -10z"/>
<path d="M10072 4980 c0 -14 2 -19 5 -12 2 6 2 18 0 25 -3 6 -5 1 -5 -13z"/>
<path d="M9445 4729 c-31 -12 -63 -17 -84 -13 -26 4 -39 0 -57 -17 -13 -12
-24 -31 -24 -41 0 -10 -7 -18 -17 -18 -10 0 -29 -11 -43 -25 -14 -14 -40 -38
-59 -53 -33 -28 -33 -28 -18 -63 13 -33 22 -38 93 -62 81 -26 86 -26 199 -2
42 10 85 28 85 37 0 5 15 8 34 8 19 0 38 5 41 10 3 6 18 10 33 10 15 1 42 14
62 30 19 17 28 30 20 30 -19 0 -2 15 18 16 10 1 47 2 85 3 60 1 67 3 67 21 0
12 10 24 23 30 18 7 15 9 -20 9 -32 1 -43 5 -43 17 0 12 -10 15 -45 13 -37 -3
-49 2 -74 25 -25 24 -35 28 -73 23 -47 -5 -128 10 -128 24 0 12 -16 10 -75
-12z"/>
<path d="M9901 4736 c-9 -11 -7 -15 8 -19 14 -3 17 0 14 14 -6 23 -7 23 -22 5z"/>
<path d="M8960 4202 c1 -13 27 -42 38 -42 6 0 12 -6 15 -12 2 -7 7 -10 11 -7
10 9 -4 40 -15 33 -5 -3 -12 1 -15 10 -6 15 -34 31 -34 18z"/>
<path d="M2443 3523 c-7 -3 -13 -13 -13 -24 0 -20 27 -25 63 -10 15 6 16 9 5
17 -19 15 -41 22 -55 17z"/>
</g>
</svg>
